<svg xmlns="http://www.w3.org/2000/svg" viewBox="0 0 600 600">
<defs><linearGradient id="bgbq" x1="0" y1="0" x2="0" y2="1"><stop offset="0" stop-color="#E6F4FF"/><stop offset="1" stop-color="#D2E9FB"/></linearGradient></defs>
<rect width="600" height="600" fill="url(#bgbq)"/>
<circle cx="300" cy="330" r="200" fill="#FFFFFF" opacity="0.6"/>
<ellipse cx="300" cy="508" rx="150" ry="22" fill="#1A1A2E" opacity="0.07"/>
<rect x="160" y="300" width="280" height="170" rx="16" fill="#8B5E3C"/>
<rect x="160" y="300" width="280" height="36" rx="16" fill="#7A5234"/>
<rect x="270" y="288" width="60" height="26" rx="8" fill="#E6B84C"/>
<g transform="rotate(-20 260 220)"><rect x="250" y="130" width="20" height="120" rx="8" fill="#2F4156"/><rect x="240" y="240" width="40" height="56" rx="8" fill="#9FA8B3"/></g>
<g transform="rotate(20 340 220)"><rect x="330" y="130" width="20" height="120" rx="8" fill="#2F4156"/><path d="M324 246h12v44h-12zM340 246h12v44h-12zM356 246h12v44h-12z" fill="#9FA8B3"/><rect x="322" y="238" width="48" height="14" rx="6" fill="#9FA8B3"/></g>
<text x="238" y="420" font-family="Georgia,serif" font-size="30" fill="#F6E7C9" font-style="italic">Grill Pro</text>
<g fill="#E8315B" opacity="0.55"><path d="M120 110l6 16 16 6-16 6-6 16-6-16-16-6 16-6z"/><path d="M480 90l4 11 11 4-11 4-4 11-4-11-11-4 11-4z" opacity="0.7"/><path d="M500 480l5 13 13 5-13 5-5 13-5-13-13-5 13-5z" opacity="0.5"/></g></svg>
