<svg xmlns="http://www.w3.org/2000/svg" viewBox="0 0 600 600">
<defs><linearGradient id="bgpp" x1="0" y1="0" x2="0" y2="1"><stop offset="0" stop-color="#FFF4E6"/><stop offset="1" stop-color="#FFE8CC"/></linearGradient></defs>
<rect width="600" height="600" fill="url(#bgpp)"/>
<circle cx="300" cy="330" r="200" fill="#FFFFFF" opacity="0.6"/>
<ellipse cx="300" cy="508" rx="150" ry="22" fill="#1A1A2E" opacity="0.07"/>
<rect x="165" y="165" width="270" height="310" rx="10" fill="#FFF9F2"/>
<rect x="165" y="165" width="270" height="310" rx="10" fill="none" stroke="#E8C9A0" stroke-width="14"/>
<rect x="196" y="196" width="208" height="248" fill="#FBE3C8"/>
<circle cx="300" cy="320" r="64" fill="#C89B6C"/>
<ellipse cx="300" cy="344" rx="30" ry="24" fill="#F6E7C9"/>
<circle cx="278" cy="306" r="8" fill="#1A1A2E"/>
<circle cx="322" cy="306" r="8" fill="#1A1A2E"/>
<ellipse cx="300" cy="334" rx="10" ry="8" fill="#1A1A2E"/>
<path d="M246 268c-18-22 2-46 22-32zM354 268c18-22-2-46-22-32z" fill="#A87E50"/>
<path d="M280 236q20-14 40 0" stroke="#E8315B" stroke-width="8" fill="none" stroke-linecap="round"/>
<g fill="#E8315B" opacity="0.55"><path d="M120 110l6 16 16 6-16 6-6 16-6-16-16-6 16-6z"/><path d="M480 90l4 11 11 4-11 4-4 11-4-11-11-4 11-4z" opacity="0.7"/><path d="M500 480l5 13 13 5-13 5-5 13-5-13-13-5 13-5z" opacity="0.5"/></g></svg>
