<svg xmlns="http://www.w3.org/2000/svg" viewBox="0 0 600 600">
<defs><linearGradient id="bgsm" x1="0" y1="0" x2="0" y2="1"><stop offset="0" stop-color="#F3E8FF"/><stop offset="1" stop-color="#E4D2F7"/></linearGradient></defs>
<rect width="600" height="600" fill="url(#bgsm)"/>
<circle cx="300" cy="330" r="200" fill="#FFFFFF" opacity="0.6"/>
<ellipse cx="300" cy="508" rx="150" ry="22" fill="#1A1A2E" opacity="0.07"/>
<rect x="170" y="150" width="260" height="340" rx="10" fill="#FFF9F2"/>
<rect x="190" y="170" width="220" height="260" rx="6" fill="#1A1A2E"/>
<circle cx="300" cy="300" r="92" fill="none" stroke="#4A4A68" stroke-width="2"/>
<circle cx="300" cy="300" r="60" fill="none" stroke="#4A4A68" stroke-width="1.5" opacity="0.6"/>
<g fill="#FFF"><circle cx="262" cy="252" r="4"/><circle cx="318" cy="232" r="3"/><circle cx="352" cy="290" r="4.5"/><circle cx="290" cy="320" r="3"/><circle cx="246" cy="330" r="3.5"/><circle cx="330" cy="352" r="3"/><circle cx="222" cy="210" r="2"/><circle cx="372" cy="208" r="2.5"/><circle cx="380" cy="380" r="2"/></g>
<path d="M262 252L318 232 352 290 290 320 246 330" stroke="#9B9BB4" stroke-width="1.5" fill="none"/>
<text x="238" y="466" font-family="Georgia,serif" font-size="22" fill="#4A4A68" font-style="italic">Our night sky</text>
<g fill="#E8315B" opacity="0.55"><path d="M120 110l6 16 16 6-16 6-6 16-6-16-16-6 16-6z"/><path d="M480 90l4 11 11 4-11 4-4 11-4-11-11-4 11-4z" opacity="0.7"/><path d="M500 480l5 13 13 5-13 5-5 13-5-13-13-5 13-5z" opacity="0.5"/></g></svg>
