<svg xmlns="http://www.w3.org/2000/svg" viewBox="0 0 400 400">
<defs><linearGradient id="cfr" x1="0" y1="0" x2="0" y2="1"><stop offset="0" stop-color="#FFE4EC"/><stop offset="1" stop-color="#FBD3DF"/></linearGradient></defs>
<rect width="400" height="400" fill="url(#cfr)"/>
<circle cx="200" cy="215" r="125" fill="#FFFFFF" opacity="0.55"/>
<rect x="150" y="170" width="100" height="130" rx="18" fill="#F5B8CC"/>
<rect x="150" y="170" width="100" height="130" rx="18" fill="none" stroke="#E8A5BC" stroke-width="5"/>
<rect x="182" y="138" width="36" height="36" rx="8" fill="#E6B84C"/>
<circle cx="200" cy="234" r="26" fill="#FFF0F3"/>
<path d="M200 222c-8-8-20-2-17 8 2 8 12 13 17 17 5-4 15-9 17-17 3-10-9-16-17-8z" fill="#E8315B"/>
<g transform="translate(266 180)"><circle r="14" fill="#F5A623"/><g fill="#E8315B"><circle cx="0" cy="-26" r="13"/><circle cx="25" cy="-8" r="13"/><circle cx="16" cy="22" r="13"/><circle cx="-16" cy="22" r="13"/><circle cx="-25" cy="-8" r="13"/></g></g>
<rect x="262" y="208" width="9" height="80" rx="4" fill="#5F9A7D"/>
</svg>
