<svg xmlns="http://www.w3.org/2000/svg" viewBox="0 0 600 600">
<defs><linearGradient id="bgcd" x1="0" y1="0" x2="0" y2="1"><stop offset="0" stop-color="#FFF4E6"/><stop offset="1" stop-color="#FFE8CC"/></linearGradient></defs>
<rect width="600" height="600" fill="url(#bgcd)"/>
<circle cx="300" cy="330" r="200" fill="#FFFFFF" opacity="0.6"/>
<ellipse cx="300" cy="508" rx="150" ry="22" fill="#1A1A2E" opacity="0.07"/>
<rect x="150" y="320" width="90" height="150" rx="12" fill="#F8C8D4"/>
<rect x="255" y="280" width="96" height="190" rx="12" fill="#FAD9E2"/>
<rect x="366" y="335" width="86" height="135" rx="12" fill="#F3B3C6"/>
<rect x="150" y="320" width="90" height="34" rx="12" fill="#E8A5BC"/>
<rect x="255" y="280" width="96" height="34" rx="12" fill="#EFB9CC"/>
<rect x="366" y="335" width="86" height="30" rx="12" fill="#E59CB5"/>
<rect x="192" y="296" width="6" height="26" fill="#9B6B4F"/>
<rect x="300" y="254" width="6" height="28" fill="#9B6B4F"/>
<rect x="406" y="312" width="6" height="25" fill="#9B6B4F"/>
<path d="M195 270c12 12 12 26 0 30-12-4-12-18 0-30z" fill="#F5A623"/>
<path d="M303 226c13 13 13 28 0 32-13-4-13-19 0-32z" fill="#F5A623"/>
<path d="M409 286c11 11 11 24 0 27-11-3-11-16 0-27z" fill="#F5A623"/>
<path d="M195 278c6 7 6 16 0 19-6-3-6-12 0-19z" fill="#FFD98E"/>
<path d="M303 235c7 8 7 17 0 20-7-3-7-12 0-20z" fill="#FFD98E"/>
<g fill="#E8315B" opacity="0.55"><path d="M120 110l6 16 16 6-16 6-6 16-6-16-16-6 16-6z"/><path d="M480 90l4 11 11 4-11 4-4 11-4-11-11-4 11-4z" opacity="0.7"/><path d="M500 480l5 13 13 5-13 5-5 13-5-13-13-5 13-5z" opacity="0.5"/></g></svg>
