<svg xmlns="http://www.w3.org/2000/svg" viewBox="0 0 600 600">
<defs><linearGradient id="bggb" x1="0" y1="0" x2="0" y2="1"><stop offset="0" stop-color="#FFF0F3"/><stop offset="1" stop-color="#FFD6E0"/></linearGradient></defs>
<rect width="600" height="600" fill="url(#bggb)"/>
<circle cx="300" cy="330" r="200" fill="#FFFFFF" opacity="0.6"/>
<ellipse cx="300" cy="508" rx="150" ry="22" fill="#1A1A2E" opacity="0.07"/>
<rect x="170" y="270" width="260" height="200" rx="14" fill="#E8315B"/>
<rect x="170" y="270" width="260" height="200" rx="14" fill="#C2244A" opacity="0.15"/>
<rect x="150" y="220" width="300" height="70" rx="12" fill="#F04A71"/>
<rect x="282" y="220" width="36" height="250" fill="#FFD6E0"/>
<path d="M300 220c-40-46-96-30-92 6 3 28 50 14 92-6z" fill="#FFC2D2"/>
<path d="M300 220c40-46 96-30 92 6-3 28-50 14-92-6z" fill="#FFC2D2"/>
<circle cx="300" cy="222" r="16" fill="#FFE4EC"/>
<g fill="#E8315B" opacity="0.55"><path d="M120 110l6 16 16 6-16 6-6 16-6-16-16-6 16-6z"/><path d="M480 90l4 11 11 4-11 4-4 11-4-11-11-4 11-4z" opacity="0.7"/><path d="M500 480l5 13 13 5-13 5-5 13-5-13-13-5 13-5z" opacity="0.5"/></g></svg>
