<svg xmlns="http://www.w3.org/2000/svg" viewBox="0 0 600 600">
<defs><linearGradient id="bggf" x1="0" y1="0" x2="0" y2="1"><stop offset="0" stop-color="#E6FFEF"/><stop offset="1" stop-color="#CFF5DF"/></linearGradient></defs>
<rect width="600" height="600" fill="url(#bggf)"/>
<circle cx="300" cy="330" r="200" fill="#FFFFFF" opacity="0.6"/>
<ellipse cx="300" cy="508" rx="150" ry="22" fill="#1A1A2E" opacity="0.07"/>
<rect x="170" y="180" width="260" height="300" rx="14" fill="#2F4156"/>
<rect x="192" y="202" width="216" height="256" rx="8" fill="#FFF9F2"/>
<rect x="208" y="218" width="184" height="180" fill="#D2E9FB"/>
<path d="M300 268l-74 28 74 28 74-28z" fill="#1A1A2E"/>
<rect x="282" y="296" width="36" height="14" rx="4" fill="#1A1A2E"/>
<path d="M374 296v36" stroke="#E6B84C" stroke-width="6" stroke-linecap="round"/>
<circle cx="374" cy="338" r="8" fill="#E6B84C"/>
<text x="244" y="438" font-family="Georgia,serif" font-size="26" fill="#2F4156">2026</text>
<g fill="#E8315B" opacity="0.55"><path d="M120 110l6 16 16 6-16 6-6 16-6-16-16-6 16-6z"/><path d="M480 90l4 11 11 4-11 4-4 11-4-11-11-4 11-4z" opacity="0.7"/><path d="M500 480l5 13 13 5-13 5-5 13-5-13-13-5 13-5z" opacity="0.5"/></g></svg>
