<svg xmlns="http://www.w3.org/2000/svg" viewBox="0 0 600 600">
<defs><linearGradient id="bgmg" x1="0" y1="0" x2="0" y2="1"><stop offset="0" stop-color="#FFF0F3"/><stop offset="1" stop-color="#FFE4EC"/></linearGradient></defs>
<rect width="600" height="600" fill="url(#bgmg)"/>
<circle cx="300" cy="330" r="200" fill="#FFFFFF" opacity="0.6"/>
<ellipse cx="300" cy="508" rx="150" ry="22" fill="#1A1A2E" opacity="0.07"/>
<path d="M390 300h36c30 0 30 70 0 70h-36z" fill="#E8315B"/>
<path d="M396 316h28c16 0 16 38 0 38h-28z" fill="#FFF0F3"/>
<rect x="190" y="250" width="210" height="220" rx="20" fill="#FAFAFA"/>
<rect x="190" y="250" width="210" height="40" rx="20" fill="#F0F0F4"/>
<path d="M295 330c-22-22-50-5-42 19 6 19 30 33 42 44 12-11 36-25 42-44 8-24-20-41-42-19z" fill="#E8315B"/>
<rect x="248" y="412" width="94" height="12" rx="6" fill="#FFD6E0"/>
<g fill="#E8315B" opacity="0.55"><path d="M120 110l6 16 16 6-16 6-6 16-6-16-16-6 16-6z"/><path d="M480 90l4 11 11 4-11 4-4 11-4-11-11-4 11-4z" opacity="0.7"/><path d="M500 480l5 13 13 5-13 5-5 13-5-13-13-5 13-5z" opacity="0.5"/></g></svg>
