<svg xmlns="http://www.w3.org/2000/svg" viewBox="0 0 600 600">
<defs><linearGradient id="bgpf" x1="0" y1="0" x2="0" y2="1"><stop offset="0" stop-color="#FFF4E6"/><stop offset="1" stop-color="#FBE3C8"/></linearGradient></defs>
<rect width="600" height="600" fill="url(#bgpf)"/>
<circle cx="300" cy="330" r="200" fill="#FFFFFF" opacity="0.6"/>
<ellipse cx="300" cy="508" rx="150" ry="22" fill="#1A1A2E" opacity="0.07"/>
<rect x="160" y="160" width="280" height="320" rx="16" fill="#C89B6C"/>
<rect x="186" y="186" width="228" height="268" rx="8" fill="#FFF9F2"/>
<rect x="200" y="200" width="200" height="240" fill="#BFE3F2"/>
<circle cx="350" cy="250" r="26" fill="#FFD98E"/>
<path d="M200 440l70-90 50 56 36-40 44 74z" fill="#7FB89A"/>
<path d="M200 440l70-90 50 56-30 34z" fill="#5F9A7D"/>
<path d="M250 470l-40 60M350 470l40 60" stroke="#A87E50" stroke-width="14" stroke-linecap="round"/>
<g fill="#E8315B" opacity="0.55"><path d="M120 110l6 16 16 6-16 6-6 16-6-16-16-6 16-6z"/><path d="M480 90l4 11 11 4-11 4-4 11-4-11-11-4 11-4z" opacity="0.7"/><path d="M500 480l5 13 13 5-13 5-5 13-5-13-13-5 13-5z" opacity="0.5"/></g></svg>
