<svg xmlns="http://www.w3.org/2000/svg" viewBox="0 0 600 600">
<defs><linearGradient id="bgpb" x1="0" y1="0" x2="0" y2="1"><stop offset="0" stop-color="#FFE4EC"/><stop offset="1" stop-color="#FBD3DF"/></linearGradient></defs>
<rect width="600" height="600" fill="url(#bgpb)"/>
<circle cx="300" cy="330" r="200" fill="#FFFFFF" opacity="0.6"/>
<ellipse cx="300" cy="508" rx="150" ry="22" fill="#1A1A2E" opacity="0.07"/>
<path d="M300 230c-50-26-110-26-140-12v240c30-14 90-14 140 12 50-26 110-26 140-12V218c-30-14-90-14-140 12z" fill="#FAF3EB"/>
<path d="M300 230v240" stroke="#E0CFC0" stroke-width="5"/>
<rect x="188" y="252" width="86" height="70" rx="4" fill="#9FCBE8" transform="rotate(-3 231 287)"/>
<circle cx="248" cy="276" r="10" fill="#FFD98E"/>
<rect x="188" y="346" width="60" height="9" rx="4" fill="#D8C7B8"/>
<rect x="188" y="366" width="80" height="9" rx="4" fill="#E5D8CC"/>
<rect x="324" y="252" width="86" height="70" rx="4" fill="#F5B8CC" transform="rotate(3 367 287)"/>
<path d="M352 296c-10-10-24-2-20 10 3 9 14 15 20 20 6-5 17-11 20-20 4-12-10-20-20-10z" fill="#E8315B"/>
<rect x="330" y="346" width="70" height="9" rx="4" fill="#D8C7B8"/>
<g fill="#E8315B" opacity="0.55"><path d="M120 110l6 16 16 6-16 6-6 16-6-16-16-6 16-6z"/><path d="M480 90l4 11 11 4-11 4-4 11-4-11-11-4 11-4z" opacity="0.7"/><path d="M500 480l5 13 13 5-13 5-5 13-5-13-13-5 13-5z" opacity="0.5"/></g></svg>
