<svg xmlns="http://www.w3.org/2000/svg" viewBox="0 0 600 600">
<defs><linearGradient id="bgrd" x1="0" y1="0" x2="0" y2="1"><stop offset="0" stop-color="#F3E8FF"/><stop offset="1" stop-color="#E8D5FB"/></linearGradient></defs>
<rect width="600" height="600" fill="url(#bgrd)"/>
<circle cx="300" cy="330" r="200" fill="#FFFFFF" opacity="0.6"/>
<ellipse cx="300" cy="508" rx="150" ry="22" fill="#1A1A2E" opacity="0.07"/>
<path d="M170 470v-160c0-90 60-150 130-150s130 60 130 150v160z" fill="#EAF4FA" opacity="0.85"/>
<path d="M170 470v-160c0-90 60-150 130-150" fill="none" stroke="#FFFFFF" stroke-width="10" stroke-linecap="round" opacity="0.9"/>
<rect x="146" y="462" width="308" height="36" rx="14" fill="#8B5E3C"/>
<rect x="290" y="300" width="14" height="130" fill="#5F9A7D" rx="7"/>
<path d="M297 330c-30 4-44 26-30 34 16 9 34-12 30-34z" fill="#5F9A7D"/>
<circle cx="297" cy="266" r="42" fill="#E8315B"/>
<path d="M297 238a28 28 0 0 1 0 56 22 22 0 0 1 0-44 14 14 0 0 0 0 28" fill="none" stroke="#FFC2D2" stroke-width="8" stroke-linecap="round"/>
<g fill="#E8315B" opacity="0.55"><path d="M120 110l6 16 16 6-16 6-6 16-6-16-16-6 16-6z"/><path d="M480 90l4 11 11 4-11 4-4 11-4-11-11-4 11-4z" opacity="0.7"/><path d="M500 480l5 13 13 5-13 5-5 13-5-13-13-5 13-5z" opacity="0.5"/></g></svg>
