<svg xmlns="http://www.w3.org/2000/svg" viewBox="0 0 600 600">
<defs><linearGradient id="bgwl" x1="0" y1="0" x2="0" y2="1"><stop offset="0" stop-color="#E6F4FF"/><stop offset="1" stop-color="#D2E9FB"/></linearGradient></defs>
<rect width="600" height="600" fill="url(#bgwl)"/>
<circle cx="300" cy="330" r="200" fill="#FFFFFF" opacity="0.6"/>
<ellipse cx="300" cy="508" rx="150" ry="22" fill="#1A1A2E" opacity="0.07"/>
<rect x="160" y="240" width="280" height="190" rx="20" fill="#8B5E3C"/>
<rect x="160" y="240" width="280" height="190" rx="20" fill="none" stroke="#6F4A2E" stroke-width="4" stroke-dasharray="10 8" opacity="0.5"/>
<rect x="160" y="280" width="280" height="40" fill="#7A5234"/>
<rect x="350" y="310" width="90" height="58" rx="12" fill="#A87E50"/>
<circle cx="394" cy="339" r="11" fill="#E6B84C"/>
<text x="205" y="412" font-family="Georgia,serif" font-size="34" fill="#E6B84C" font-style="italic">J.D.</text>
<g fill="#E8315B" opacity="0.55"><path d="M120 110l6 16 16 6-16 6-6 16-6-16-16-6 16-6z"/><path d="M480 90l4 11 11 4-11 4-4 11-4-11-11-4 11-4z" opacity="0.7"/><path d="M500 480l5 13 13 5-13 5-5 13-5-13-13-5 13-5z" opacity="0.5"/></g></svg>
