<svg xmlns="http://www.w3.org/2000/svg" viewBox="0 0 600 600">
<defs><linearGradient id="bgws" x1="0" y1="0" x2="0" y2="1"><stop offset="0" stop-color="#FFF4E6"/><stop offset="1" stop-color="#F2DEC2"/></linearGradient></defs>
<rect width="600" height="600" fill="url(#bgws)"/>
<circle cx="300" cy="330" r="200" fill="#FFFFFF" opacity="0.6"/>
<ellipse cx="300" cy="508" rx="150" ry="22" fill="#1A1A2E" opacity="0.07"/>
<rect x="150" y="380" width="300" height="90" rx="10" fill="#A87E50"/>
<rect x="150" y="380" width="300" height="16" fill="#8B5E3C"/>
<path d="M230 250h120l-12 130h-96z" fill="#F6E7C9" opacity="0.9"/>
<path d="M242 320h96l-6 60h-84z" fill="#E6A23C" opacity="0.8"/>
<rect x="246" y="330" width="26" height="26" rx="5" fill="#9FA8B3"/>
<rect x="288" y="338" width="24" height="24" rx="5" fill="#7E8893"/>
<rect x="380" y="300" width="46" height="46" rx="8" fill="#9FA8B3"/>
<rect x="386" y="252" width="40" height="40" rx="8" fill="#B7BfC9"/>
<g fill="#E8315B" opacity="0.55"><path d="M120 110l6 16 16 6-16 6-6 16-6-16-16-6 16-6z"/><path d="M480 90l4 11 11 4-11 4-4 11-4-11-11-4 11-4z" opacity="0.7"/><path d="M500 480l5 13 13 5-13 5-5 13-5-13-13-5 13-5z" opacity="0.5"/></g></svg>
