<svg width="32" height="32" viewBox="0 0 44 44" fill="none" xmlns="http://www.w3.org/2000/svg">
  <rect x="4" y="18" width="36" height="22" rx="4" fill="#FFF0F3" stroke="#E8315B" stroke-width="2"/>
  <rect x="2" y="12" width="40" height="8" rx="3" fill="#E8315B"/>
  <rect x="19" y="12" width="6" height="28" rx="1" fill="#FFD6E0" opacity="0.7"/>
  <rect x="4" y="20" width="36" height="5" rx="1" fill="#FFD6E0" opacity="0.7"/>
  <path d="M16 12C16 8 13 5 10 5C7 5 5 7.5 5 10C5 11.5 6 12 7 12L16 12Z" fill="#E8315B"/>
  <path d="M28 12C28 8 31 5 34 5C37 5 39 7.5 39 10C39 11.5 38 12 37 12L28 12Z" fill="#E8315B"/>
  <circle cx="22" cy="12" r="3" fill="#F2C572"/>
</svg>
